<?xml version="1.0" encoding="utf-8"?>
<!-- Generator: Adobe Illustrator 26.0.0, SVG Export Plug-In . SVG Version: 6.00 Build 0)  -->
<svg version="1.1" id="Capa_1" xmlns="http://www.w3.org/2000/svg" xmlns:xlink="http://www.w3.org/1999/xlink" x="0px" y="0px"
	 viewBox="0 0 263.2 263.2" style="enable-background:new 0 0 263.2 263.2;" xml:space="preserve">
<style type="text/css">
	.st0{fill-rule:evenodd;clip-rule:evenodd;}
</style>
<g>
	<path class="st0" d="M260.2,28.7c0.2-12.7-9.9-23.1-22.6-23.3c-2.3,0-4.5,0.3-6.7,0.9L18.9,63.2C9.5,65.7,2.9,74.2,3,84v25.7
		c-0.1,9.4,7.5,17.1,16.9,17.1c1.6,0,3.2-0.2,4.7-0.6l180.9-48.5c18.6-5,38.3,2.4,49,18.4l5.8,8.6L260.2,28.7z"/>
	<path class="st0" d="M240.6,138.9c0-17.8-14.5-32.3-32.3-32.3c-2.8,0-5.6,0.4-8.3,1.1L17.8,156.6C9,158.9,3,166.8,3,175.9v81.8
		l14.9-20.1c10-13.4,24.2-23,40.3-27.4l167.5-44.9c8.8-2.3,14.9-10.3,14.9-19.4L240.6,138.9z"/>
</g>
</svg>
