<?xml version="1.0" encoding="utf-8"?>
<!-- Generator: Adobe Illustrator 26.0.0, SVG Export Plug-In . SVG Version: 6.00 Build 0)  -->
<svg version="1.1" id="Capa_1" xmlns="http://www.w3.org/2000/svg" xmlns:xlink="http://www.w3.org/1999/xlink" x="0px" y="0px"
	 viewBox="0 0 263.2 263.2" style="enable-background:new 0 0 263.2 263.2;" xml:space="preserve">
<g>
	<g>
		<g>
			<path d="M160.5,151.6c32.3,0,55.2,31.5,45.3,62.2l0,0l-1.1,3.4H40.3c-0.5,0-1,0.2-1.4,0.5L6.7,245.4c-1.7,1.4-4.2-0.2-3.5-2.3
				l8.4-25.9l20.7-64.1c0.3-0.9,1.1-1.5,2.1-1.5H160.5z"/>
			<path d="M45.6,104.9h164.9c0.8,0,1.6,0.5,1.9,1.2l14.2,27.5c0.9,1.7,3.4,1.5,4-0.3l9.1-28.3L260,42.1c0.5-1.4-0.6-2.9-2.1-2.9
				H99.4c-21.2,0-40,13.7-46.5,33.9L43.6,102C43.1,103.4,44.2,104.9,45.6,104.9z"/>
		</g>
	</g>
</g>
</svg>
